<?xml version="1.0" standalone="no"?>
<!DOCTYPE svg PUBLIC "-//W3C//DTD SVG 20010904//EN"
 "http://www.w3.org/TR/2001/REC-SVG-20010904/DTD/svg10.dtd">
<svg version="1.0" xmlns="http://www.w3.org/2000/svg"
 width="400.000000pt" height="400.000000pt" viewBox="0 0 400.000000 400.000000"
 preserveAspectRatio="xMidYMid meet">
<metadata>
Created by potrace 1.16, written by Peter Selinger 2001-2019
</metadata>
<g transform="translate(0.000000,400.000000) scale(0.100000,-0.100000)"
fill="#000000" stroke="none">
<path d="M1764 3605 c-269 -41 -583 -169 -814 -333 -122 -86 -316 -280 -402
-402 -141 -199 -250 -453 -298 -696 -28 -138 -38 -423 -21 -572 79 -681 540
-1251 1183 -1467 580 -194 1222 -87 1693 280 92 72 250 232 317 320 149 197
263 449 316 695 174 811 -204 1621 -925 1984 -159 79 -345 145 -499 177 -131
26 -420 34 -550 14z m392 -606 c252 -35 490 -155 679 -344 349 -347 445 -842
254 -1302 -46 -109 -156 -268 -255 -367 -93 -93 -240 -197 -346 -245 -234
-107 -592 -123 -873 -39 -208 61 -454 248 -593 450 -280 409 -281 939 -1 1337
262 374 700 571 1135 510z"/>
<path d="M1478 2720 c-135 -70 -178 -137 -198 -308 -13 -112 -13 -1070 0
-1181 14 -126 35 -177 94 -236 63 -62 118 -82 271 -97 137 -13 445 -3 556 18
238 45 431 164 547 339 237 354 206 932 -65 1225 -78 84 -152 137 -269 190
-181 84 -181 84 -539 87 l-320 2 -77 -39z m660 -586 c140 -39 216 -200 183
-389 -14 -80 -31 -117 -75 -163 -59 -63 -96 -75 -243 -80 l-133 -4 0 320 c0
278 2 322 15 330 23 12 192 3 253 -14z"/>
</g>
</svg>
