<?xml version="1.0" standalone="no"?>
<!DOCTYPE svg PUBLIC "-//W3C//DTD SVG 20010904//EN"
 "http://www.w3.org/TR/2001/REC-SVG-20010904/DTD/svg10.dtd">
<svg version="1.0" xmlns="http://www.w3.org/2000/svg"
 width="512.000000pt" height="512.000000pt" viewBox="0 0 512.000000 512.000000"
 preserveAspectRatio="xMidYMid meet">
<metadata>
Created by potrace 1.16, written by Peter Selinger 2001-2019
</metadata>
<g transform="translate(0.000000,512.000000) scale(0.100000,-0.100000)"
fill="#000000" stroke="none">
<path d="M382 4839 c-50 -25 -99 -80 -113 -129 -6 -23 -9 -747 -7 -2171 l3
-2135 28 -42 c15 -23 46 -54 69 -69 l42 -28 2156 0 2156 0 42 28 c23 15 54 46
69 69 l28 42 0 2156 0 2156 -28 42 c-15 23 -46 54 -69 69 l-42 28 -2145 3
-2146 2 -43 -21z m3203 -1459 l0 -205 -617 -3 -618 -2 0 203 c0 112 3 207 7
210 3 4 281 6 617 5 l611 -3 0 -205z m-1635 -820 l0 -1020 -205 0 -205 0 0
1020 0 1020 205 0 205 0 0 -1020z m1635 0 l0 -205 -615 0 -615 0 -3 195 c-1
107 0 200 2 207 4 11 126 13 618 11 l613 -3 0 -205z m3 -817 l2 -203 -620 0
-620 0 0 205 0 205 618 -2 617 -3 3 -202z"/>
</g>
</svg>
