<?xml version="1.0" standalone="no"?>
<!DOCTYPE svg PUBLIC "-//W3C//DTD SVG 20010904//EN"
 "http://www.w3.org/TR/2001/REC-SVG-20010904/DTD/svg10.dtd">
<svg version="1.0" xmlns="http://www.w3.org/2000/svg"
 width="1024.000000pt" height="1024.000000pt" viewBox="0 0 1024.000000 1024.000000"
 preserveAspectRatio="xMidYMid meet">
<metadata>
Created by potrace 1.16, written by Peter Selinger 2001-2019
</metadata>
<g transform="translate(0.000000,1024.000000) scale(0.100000,-0.100000)"
fill="#000000" stroke="none">
<path d="M4995 7644 c-16 -2 -84 -11 -150 -20 -237 -31 -562 -132 -778 -241
-439 -220 -830 -584 -1078 -1005 -168 -284 -284 -609 -336 -948 -25 -166 -25
-578 1 -745 42 -275 120 -523 241 -770 134 -272 297 -497 521 -715 769 -751
1928 -948 2901 -495 l92 43 83 -42 c199 -100 460 -121 678 -54 145 44 321 157
418 268 72 83 147 212 180 311 88 267 56 535 -94 776 l-44 71 49 149 c97 292
134 522 134 833 0 306 -37 541 -130 818 -268 803 -905 1421 -1716 1666 -116
35 -216 57 -371 83 -87 14 -530 27 -601 17z m450 -434 c222 -26 441 -88 640
-184 238 -114 398 -228 586 -416 341 -340 549 -768 621 -1275 18 -131 15 -455
-6 -592 -17 -112 -56 -285 -74 -334 l-10 -26 -74 20 c-102 29 -351 30 -452 3
-283 -76 -512 -270 -624 -529 -53 -122 -75 -248 -69 -392 6 -129 20 -196 68
-318 18 -43 30 -79 28 -81 -22 -21 -243 -99 -369 -131 -228 -57 -533 -73 -769
-40 -822 116 -1497 727 -1725 1559 -60 217 -71 310 -71 591 1 197 4 271 19
350 127 699 522 1256 1117 1574 192 102 450 185 673 215 123 17 368 20 491 6z
m1612 -3116 c204 -53 376 -227 429 -435 23 -90 15 -252 -16 -334 -71 -187
-231 -331 -419 -380 -81 -21 -226 -21 -306 0 -122 32 -246 111 -323 207 -72
90 -131 254 -132 366 0 69 29 192 62 257 95 191 253 301 488 339 39 6 159 -5
217 -20z"/>
</g>
</svg>
